<?xml version="1.0" encoding="UTF-8" standalone="no"?><!DOCTYPE svg PUBLIC "-//W3C//DTD SVG 1.1//EN" "http://www.w3.org/Graphics/SVG/1.1/DTD/svg11.dtd"><svg width="100%" height="100%" viewBox="0 0 3334 3334" version="1.1" xmlns="http://www.w3.org/2000/svg" xmlns:xlink="http://www.w3.org/1999/xlink" xml:space="preserve" xmlns:serif="http://www.serif.com/" style="fill-rule:evenodd;clip-rule:evenodd;stroke-linejoin:round;stroke-miterlimit:2;"><g><g><path d="M2500,2422.33l0,-833.334c0,-459.498 -373.835,-833.333 -833.333,-833.333c-459.499,0 -833.334,373.835 -833.334,833.333l0,833.334c-92.057,-0 -166.666,74.609 -166.666,166.666l-0,166.667c-0,92.057 74.609,166.667 166.666,166.667l1666.67,-0c92.057,-0 166.667,-74.61 166.667,-166.667l-0,-166.667c-0,-92.05 -74.61,-166.666 -166.667,-166.666Zm-1500,-833.334c0,-368.222 298.503,-666.666 666.667,-666.666c368.164,-0 666.666,298.444 666.666,666.666l0,833.334l-1333.33,-0l0,-833.334Zm1500,1166.67l-1666.67,0l0,-166.667l1666.67,0l0,166.667Z" style="fill:#fff;fill-rule:nonzero;"/></g></g><g><g><path d="M842.109,764.447l-117.78,-117.78c-241.438,241.386 -390.996,574.72 -390.996,942.33c0,250.664 70.834,484.499 191.608,685.052l142.722,-85.611c-105.716,-175.495 -167.663,-380.105 -167.663,-599.441c0,-321.666 130.833,-613.333 342.109,-824.55Z" style="fill:#fff;fill-rule:nonzero;"/></g></g><g><g><path d="M2609.06,646.608l-117.78,117.78c211.224,211.276 342.057,502.943 342.057,824.609c0,219.336 -61.946,423.946 -167.61,599.447l142.721,85.612c120.723,-200.553 191.556,-434.447 191.556,-685.059c0,-367.61 -149.557,-700.944 -390.944,-942.389Z" style="fill:#fff;fill-rule:nonzero;"/></g></g><g><g><path d="M2844.61,411.003l-117.832,117.832c271.667,271.608 439.89,646.608 439.89,1060.17c-0,281.999 -79.668,545.111 -215.554,770.664l142.722,85.664c150.996,-250.664 239.498,-543.001 239.498,-856.335c0,-459.55 -186.888,-876.217 -488.724,-1177.99Z" style="fill:#fff;fill-rule:nonzero;"/></g></g><g><g><path d="M606.497,528.835l-117.773,-117.832c-301.836,301.777 -488.724,718.444 -488.724,1177.99c0,313.334 88.503,605.664 239.447,856.335l142.721,-85.664c-135.833,-225.612 -215.501,-488.724 -215.501,-770.671c-0,-413.554 168.222,-788.554 439.83,-1060.16Z" style="fill:#fff;fill-rule:nonzero;"/></g></g></svg>