<?xml version="1.0" encoding="UTF-8" standalone="no"?><!DOCTYPE svg PUBLIC "-//W3C//DTD SVG 1.1//EN" "http://www.w3.org/Graphics/SVG/1.1/DTD/svg11.dtd"><svg width="100%" height="100%" viewBox="0 0 1250 1250" version="1.1" xmlns="http://www.w3.org/2000/svg" xmlns:xlink="http://www.w3.org/1999/xlink" xml:space="preserve" xmlns:serif="http://www.serif.com/" style="fill-rule:evenodd;clip-rule:evenodd;stroke-linejoin:round;stroke-miterlimit:2;"><path d="M296.979,619.329c0,33.429 -4.278,62.629 -12.834,87.602c-8.556,24.972 -21.042,45.666 -37.458,62.082c-16.416,16.416 -36.563,28.703 -60.441,36.861c-23.877,8.158 -52.332,12.237 -85.363,12.237l-81.781,0c-4.576,0 -8.904,-1.542 -12.983,-4.626c-4.079,-3.084 -6.119,-8.506 -6.119,-16.267l0,-344.436c0,-7.761 2.04,-13.183 6.119,-16.267c4.079,-3.084 8.407,-4.626 12.983,-4.626l87.452,-0c33.429,-0 61.685,4.328 84.766,12.983c23.082,8.656 42.433,21.092 58.053,37.309c15.62,16.217 27.46,35.867 35.518,58.948c8.059,23.082 12.088,49.149 12.088,78.2Zm-54.023,2.089c0,-20.893 -2.587,-40.343 -7.76,-58.351c-5.174,-18.008 -13.282,-33.578 -24.326,-46.711c-11.043,-13.133 -25.022,-23.38 -41.935,-30.742c-16.913,-7.363 -38.702,-11.044 -65.365,-11.044l-52.233,0l0,300.561l52.83,0c24.673,0 45.467,-3.084 62.38,-9.252c16.914,-6.169 31.041,-15.62 42.383,-28.355c11.342,-12.735 19.849,-28.703 25.52,-47.905c5.671,-19.202 8.506,-41.935 8.506,-68.201Z" style="fill:#fff;fill-rule:nonzero;"/><path d="M633.954,763.491c0,3.184 -0.099,5.969 -0.298,8.357c-0.199,2.388 -0.548,4.477 -1.045,6.268c-0.497,1.791 -1.144,3.383 -1.94,4.776c-0.796,1.392 -2.189,3.084 -4.179,5.074c-1.989,1.989 -6.168,5.024 -12.535,9.103c-6.368,4.079 -14.277,8.059 -23.729,11.939c-9.452,3.88 -20.296,7.163 -32.533,9.849c-12.238,2.687 -25.619,4.03 -40.145,4.03c-25.071,-0 -47.706,-4.179 -67.902,-12.536c-20.197,-8.357 -37.409,-20.694 -51.636,-37.011c-14.227,-16.316 -25.171,-36.463 -32.832,-60.44c-7.66,-23.977 -11.491,-51.586 -11.491,-82.826c0,-32.036 4.129,-60.59 12.387,-85.661c8.257,-25.072 19.848,-46.313 34.772,-63.724c14.923,-17.411 32.782,-30.693 53.575,-39.846c20.794,-9.153 43.826,-13.73 69.097,-13.73c11.143,0 21.987,1.045 32.533,3.134c10.546,2.089 20.296,4.726 29.25,7.91c8.954,3.183 16.914,6.864 23.878,11.043c6.964,4.179 11.79,7.611 14.476,10.297c2.686,2.687 4.427,4.726 5.223,6.119c0.796,1.393 1.443,3.035 1.94,4.925c0.498,1.89 0.896,4.129 1.194,6.715c0.299,2.587 0.448,5.671 0.448,9.253c-0,3.98 -0.199,7.362 -0.597,10.148c-0.398,2.786 -0.995,5.124 -1.791,7.014c-0.796,1.891 -1.741,3.283 -2.835,4.179c-1.095,0.895 -2.438,1.343 -4.03,1.343c-2.786,-0 -6.666,-1.94 -11.64,-5.82c-4.975,-3.88 -11.392,-8.158 -19.252,-12.835c-7.859,-4.676 -17.411,-8.954 -28.653,-12.834c-11.242,-3.88 -24.723,-5.82 -40.443,-5.82c-17.112,-0 -32.683,3.432 -46.711,10.297c-14.028,6.865 -26.017,16.963 -35.966,30.295c-9.949,13.332 -17.659,29.599 -23.131,48.8c-5.472,19.202 -8.208,41.14 -8.208,65.813c-0,24.475 2.636,46.114 7.909,64.918c5.273,18.804 12.835,34.523 22.684,47.158c9.85,12.636 21.938,22.187 36.265,28.654c14.326,6.467 30.543,9.7 48.65,9.7c15.322,0 28.704,-1.89 40.145,-5.671c11.441,-3.781 21.191,-8.009 29.25,-12.685c8.059,-4.676 14.675,-8.904 19.849,-12.685c5.173,-3.781 9.252,-5.671 12.237,-5.671c1.393,0 2.587,0.299 3.582,0.895c0.994,0.597 1.79,1.742 2.387,3.433c0.597,1.691 1.045,4.029 1.343,7.014c0.299,2.985 0.448,6.765 0.448,11.342Z" style="fill:#fff;fill-rule:nonzero;"/><path d="M991.225,799.904c1.592,4.378 2.437,7.91 2.537,10.596c0.099,2.686 -0.647,4.726 -2.239,6.119c-1.591,1.393 -4.228,2.288 -7.909,2.686c-3.681,0.398 -8.606,0.597 -14.774,0.597c-6.169,0 -11.094,-0.149 -14.775,-0.448c-3.681,-0.298 -6.467,-0.796 -8.357,-1.492c-1.89,-0.696 -3.283,-1.642 -4.179,-2.835c-0.895,-1.194 -1.741,-2.687 -2.537,-4.478l-33.13,-94.018l-160.578,-0l-31.638,92.825c-0.597,1.79 -1.393,3.333 -2.388,4.626c-0.995,1.293 -2.437,2.388 -4.327,3.283c-1.891,0.896 -4.577,1.542 -8.059,1.94c-3.482,0.398 -8.009,0.597 -13.581,0.597c-5.77,0 -10.496,-0.249 -14.177,-0.746c-3.681,-0.498 -6.268,-1.443 -7.76,-2.836c-1.493,-1.392 -2.189,-3.432 -2.09,-6.118c0.1,-2.686 0.945,-6.218 2.537,-10.596l129.537,-358.763c0.796,-2.189 1.841,-3.98 3.134,-5.373c1.293,-1.392 3.184,-2.487 5.671,-3.283c2.487,-0.796 5.671,-1.343 9.551,-1.641c3.88,-0.299 8.805,-0.448 14.774,-0.448c6.368,-0 11.641,0.149 15.819,0.448c4.179,0.298 7.562,0.845 10.149,1.641c2.586,0.796 4.576,1.94 5.969,3.433c1.393,1.492 2.487,3.333 3.283,5.521l129.537,358.763Zm-166.249,-316.678l-0.298,-0l-66.56,192.514l134.313,0l-67.455,-192.514Z" style="fill:#fff;fill-rule:nonzero;"/><path d="M1250,453.976c0,3.78 -0.199,7.063 -0.597,9.849c-0.398,2.786 -1.045,5.024 -1.94,6.716c-0.895,1.691 -1.99,2.935 -3.283,3.731c-1.294,0.796 -2.736,1.194 -4.328,1.194l-108.644,-0l0,334.885c0,1.592 -0.398,2.985 -1.194,4.179c-0.796,1.193 -2.188,2.139 -4.178,2.835c-1.99,0.697 -4.627,1.293 -7.91,1.791c-3.283,0.497 -7.412,0.746 -12.386,0.746c-4.776,0 -8.855,-0.249 -12.238,-0.746c-3.382,-0.498 -6.069,-1.094 -8.058,-1.791c-1.99,-0.696 -3.383,-1.642 -4.179,-2.835c-0.796,-1.194 -1.194,-2.587 -1.194,-4.179l0,-334.885l-108.644,-0c-1.592,-0 -3.034,-0.398 -4.328,-1.194c-1.293,-0.796 -2.338,-2.04 -3.133,-3.731c-0.796,-1.692 -1.443,-3.93 -1.941,-6.716c-0.497,-2.786 -0.746,-6.069 -0.746,-9.849c0,-3.781 0.249,-7.114 0.746,-9.999c0.498,-2.885 1.145,-5.223 1.941,-7.014c0.795,-1.791 1.84,-3.084 3.133,-3.88c1.294,-0.796 2.736,-1.194 4.328,-1.194l268.625,-0c1.592,-0 3.034,0.398 4.328,1.194c1.293,0.796 2.388,2.089 3.283,3.88c0.895,1.791 1.542,4.129 1.94,7.014c0.398,2.885 0.597,6.218 0.597,9.999Z" style="fill:#fff;fill-rule:nonzero;"/></svg>