<svg width="20" height="20" viewBox="0 0 20 13" fill="none" xmlns="http://www.w3.org/2000/svg">
<path fill-rule="evenodd" clip-rule="evenodd" d="M10.9236 0.463684C9.1589 0.463684 7.87674 1.16086 7.04784 2.14863C6.39184 2.93037 6.03475 3.87461 5.92139 4.7591H3.36334C3.04507 4.7591 2.78706 5.01066 2.78706 5.32097C2.78706 5.62003 3.0267 5.86452 3.32898 5.88186C3.32861 5.88218 3.32825 5.88251 3.32789 5.88283H3.36119C3.36191 5.88284 3.36262 5.88284 3.36334 5.88284H6.44965C6.45037 5.88284 6.45108 5.88284 6.4518 5.88283H8.33468C8.65295 5.88283 8.91096 6.13439 8.91096 6.44471C8.91096 6.75432 8.65411 7.00544 8.33683 7.00657H5.8686C5.55033 7.00657 5.29232 7.25813 5.29232 7.56844C5.29232 7.87875 5.55033 8.13031 5.8686 8.13031H11.6609C11.9782 8.13144 12.235 8.38257 12.235 8.69218C12.235 9.00249 11.977 9.25405 11.6588 9.25405H4.83075L4.83506 9.26094H4.39597C4.0777 9.26094 3.81969 9.5125 3.81969 9.82281C3.81969 10.1331 4.0777 10.3847 4.39597 10.3847H10.2239C10.2437 10.3847 10.2633 10.3837 10.2826 10.3818C10.5443 10.4137 10.7468 10.6314 10.7468 10.8952C10.7468 11.1809 10.5092 11.4126 10.2162 11.4126H6.18084H5.86564H5.57527H4.98175C4.66348 11.4126 4.40547 11.6641 4.40547 11.9744C4.40547 12.2847 4.66348 12.5363 4.98175 12.5363H17.694C17.7329 12.5363 17.7709 12.5325 17.8076 12.5254C18.1426 12.5383 18.4418 12.4754 18.695 12.2609C19.7809 11.3412 20 10.0748 20 9.00647C20 7.84744 19.1572 6.35673 18.321 5.72713C17.6481 5.22052 16.8062 4.90213 15.9378 4.80072C15.7963 3.37567 15.1335 2.31574 14.2379 1.60124C13.2444 0.808751 11.9951 0.463684 10.9236 0.463684ZM2.23017 7.07289C1.9119 7.07289 1.65389 7.32445 1.65389 7.63476C1.65389 7.94508 1.9119 8.19663 2.23017 8.19663H4.16505C4.48332 8.19663 4.74133 7.94508 4.74133 7.63476C4.74133 7.32445 4.48332 7.07289 4.16505 7.07289H2.23017ZM2.78772 11.9492C2.78772 11.6523 3.03462 11.4115 3.33919 11.4115C3.64376 11.4115 3.89067 11.6523 3.89067 11.9492V11.9976C3.89067 12.2945 3.64376 12.5353 3.33919 12.5353C3.03462 12.5353 2.78772 12.2945 2.78772 11.9976V11.9492ZM0.551473 7.11262C0.246903 7.11262 0 7.35335 0 7.65031V7.69868C0 7.99563 0.246903 8.23636 0.551473 8.23636C0.856043 8.23636 1.10295 7.99563 1.10295 7.69868V7.65031C1.10295 7.35335 0.856043 7.11262 0.551473 7.11262ZM0.794523 9.2626C0.476254 9.2626 0.218246 9.51416 0.218246 9.82447C0.218246 10.1348 0.476254 10.3863 0.794523 10.3863H2.72941C3.04768 10.3863 3.30569 10.1348 3.30569 9.82447C3.30569 9.51416 3.04768 9.2626 2.72941 9.2626H0.794523ZM0.086512 11.971C0.086512 11.6607 0.34452 11.4091 0.66279 11.4091H1.69617C2.01444 11.4091 2.27245 11.6607 2.27245 11.971C2.27245 12.2813 2.01444 12.5329 1.69617 12.5329H0.66279C0.344521 12.5329 0.086512 12.2813 0.086512 11.971Z" fill="url(#paint0_radial_3208_33229)"></path>
<defs>
<radialGradient id="paint0_radial_3208_33229" cx="0" cy="0" r="1" gradientUnits="userSpaceOnUse" gradientTransform="translate(9.91894 6.49999) rotate(57.9361) scale(10.8855 17.9267)">
<stop stop-color="#51E5FF"></stop>
<stop offset="0.0001" stop-color="#0178D4"></stop>
<stop offset="0.4375" stop-color="#0178D4"></stop>
<stop offset="0.776276" stop-color="#51E5FF"></stop>
</radialGradient>
</defs>
</svg>