<?xml version="1.0" encoding="UTF-8" standalone="no"?><!DOCTYPE svg PUBLIC "-//W3C//DTD SVG 1.1//EN" "http://www.w3.org/Graphics/SVG/1.1/DTD/svg11.dtd"><svg width="100%" height="100%" viewBox="0 0 699 447" version="1.1" xmlns="http://www.w3.org/2000/svg" xmlns:xlink="http://www.w3.org/1999/xlink" xml:space="preserve" xmlns:serif="http://www.serif.com/" style="fill-rule:evenodd;clip-rule:evenodd;stroke-linejoin:round;stroke-miterlimit:2;"><rect id="Artboard1" x="0" y="0" width="698.35" height="446.518" style="fill:none;"/><g><path d="M27.261,180.57c-0,0 138.614,107.396 166.712,167.961c-0,0 43.707,-76.175 105.522,-106.146c-0,0 82.419,-56.819 86.166,-140.488c-0,0 -10.615,-72.429 -79.298,-89.912c0,0 116.761,-46.205 219.786,48.078c-0,0 43.082,34.342 62.439,124.254c-0,-0 110.517,14.361 106.146,118.009c-0,0 9.366,127.376 -164.839,136.742c-0,-0 -74.292,4.31 -99.903,-3.122c0,-0 161.717,-38.712 219.161,-93.659c0,0 -111.766,64.937 -197.307,65.561c0,0 -14.985,-56.195 64.312,-84.292c0,-0 -20.605,-14.361 -13.736,-22.478c-0,-0 25.6,-21.854 28.097,-46.83l0.625,-48.078l22.478,0c-0,0 1.249,-17.949 -13.737,-22.478c0,0 -13.112,-53.697 -38.088,-64.312l-11.863,13.112l-0,-18.731c-0,-0 -5.62,-16.859 -39.961,-15.61c-0,-0 -23.727,-2.498 -31.22,11.863l-0.624,21.854l-9.99,-13.112c-0,-0 -34.966,18.731 -36.215,64.312c0,-0 -9.99,5.619 -16.234,19.98l106.771,1.249l-80.547,9.366l-3.122,44.332c0,-0 9.366,43.707 48.078,49.951c0,-0 -46.204,10.615 -67.434,28.722c0,-0 -30.595,6.868 -57.444,38.088l-3.122,37.463l-179.824,-0.624c0,-0 -119.883,-18.732 -114.888,-146.732c0,0 -1.873,-33.093 23.103,-84.293Z" style="fill:#fff;"/><path d="M193.49,71.326c25.55,-48.078 76.652,-48.078 102.203,-24.039c25.551,24.039 25.551,72.117 -0,120.195c-17.886,36.059 -63.877,72.117 -102.203,96.156c-38.326,-24.039 -84.318,-60.097 -102.203,-96.156c-25.551,-48.078 -25.551,-96.156 -0,-120.195c25.551,-24.039 76.652,-24.039 102.203,24.039Z" style="fill:#fff;"/></g></svg>