<svg width="36" height="36" aria-labelledby="logo-alt" xmlns="http://www.w3.org/2000/svg" viewBox="0 0 250 250"><path d="M95.52 36.63V3.46a126.08 126.08 0 0 0-58.91 33.17h58.91" fill="#469dd7"></path><path d="M154.43 36.63V3.46a125.5 125.5 0 0 1 58.91 33.17h-58.91" fill="#0081c8"></path><path d="M125.1 0a125.77 125.77 0 0 0-29.58 3.46v33.17h58.91V3.46A129.32 129.32 0 0 0 125.1 0" fill="#a0c2e4"></path><path d="M154.43 213.38v33.17a125.5 125.5 0 0 0 58.91-33.17h-58.91M95.52 213.38v33.17a126.08 126.08 0 0 1-58.91-33.17h58.91" fill="#0081c8"></path><path d="M124.85 250a125.83 125.83 0 0 0 29.58-3.45v-33.17H95.52v33.17a130.78 130.78 0 0 0 29.33 3.45" fill="#469dd7"></path><path d="M213.35 95.55h33.16a126 126 0 0 0-33.16-58.91v58.91M213.35 154.46h33.16a125.48 125.48 0 0 1-33.16 58.92v-58.92" fill="#0081c8"></path><path d="M250 125.14a125.33 125.33 0 0 0-3.46-29.59h-33.19v58.91h33.16a123.07 123.07 0 0 0 3.49-29.32" fill="#469dd7"></path><path d="M36.61 154.46H3.44a125.49 125.49 0 0 0 33.17 58.92v-58.92" fill="#0081c8"></path><path d="M36.61 95.55H3.44a126 126 0 0 1 33.17-58.91v58.91" fill="#469dd7"></path><path d="M0 124.88a125.19 125.19 0 0 0 3.46 29.58h33.15V95.55H3.44A129.32 129.32 0 0 0 0 124.88" fill="#a0c2e4"></path><path d="M36.61 95.55h58.91V36.64H36.61z" fill="#93cc84"></path><path d="M36.61 154.46h58.91V95.55H36.61z" fill="#c6e3bd"></path><path d="M36.61 213.38h58.91v-58.92H36.61z" fill="#6ebf5d"></path><path d="M95.52 95.55h58.91V36.64H95.52z" fill="#c6e3bd"></path><path d="M95.52 154.46h58.91V95.55H95.52z" fill="#e4105b"></path><path d="M95.52 213.38h58.91v-58.92H95.52z" fill="#93cc84"></path><path d="M154.43 95.55h58.91V36.64h-58.91z" fill="#6ebf5d"></path><path d="M154.43 154.46h58.91V95.55h-58.91z" fill="#93cc84"></path><path d="M154.43 213.38h58.91v-58.92h-58.91z" fill="#6ebf5d"></path></svg>