<?xml version="1.0" encoding="UTF-8" standalone="no"?><!DOCTYPE svg PUBLIC "-//W3C//DTD SVG 1.1//EN" "http://www.w3.org/Graphics/SVG/1.1/DTD/svg11.dtd"><svg width="100%" height="100%" viewBox="0 0 1447 1835" version="1.1" xmlns="http://www.w3.org/2000/svg" xmlns:xlink="http://www.w3.org/1999/xlink" xml:space="preserve" xmlns:serif="http://www.serif.com/" style="fill-rule:evenodd;clip-rule:evenodd;stroke-linejoin:round;stroke-miterlimit:2;"><g id="katman_1"><g id="ZfN4iF"><g><path d="M0,530.5l222.444,0c-36.155,-51.467 -27.129,-101.582 -8.491,-152.238c44.704,-121.509 98.449,-239.215 150.082,-357.809c2.237,-5.137 6.44,-9.418 14.192,-20.453c-12.291,85.455 -32.983,160.971 -47.992,237.607c-14.821,75.681 -28.217,151.668 -40.608,227.787c-9.913,60.892 24.855,110.328 87.033,122.508c52.86,10.355 103.24,27.694 153.336,46.522c22.103,8.306 39.197,20.865 42.742,46.715c3.815,27.82 -14.944,40.843 -34.13,52.615c-58.719,36.026 -124.753,48.147 -191.753,56.563c-4.93,0.62 -9.934,0.848 -14.907,0.905c-36.165,0.418 -68.54,3.299 -70.697,52.515c-0.852,19.448 -17.479,34.89 -31.343,49.642c-40.913,43.531 -82.134,86.75 -114.498,137.58c-22.17,34.819 -32.655,73.012 -33.259,113.145c-0.666,44.287 14.712,80.81 54.245,107.97c101.283,69.583 210.699,116.349 333.255,131.141c36.096,4.358 69.709,17.37 103.088,31.62c52.201,22.284 104.364,40.975 160.159,6.053c17.923,-11.219 41.617,-4.493 62.349,-0.119c38.902,8.207 76.128,4.02 113.805,-8.519c71.95,-23.946 143.96,-47.62 220.123,-56.311c26.206,-2.991 43.314,2.424 55.009,25.884c13.648,27.38 34.893,41.835 66.564,35.702c32.571,-6.306 42.435,-30.829 47.339,-59.563c10.715,-62.783 5.621,-123.732 -17.665,-183.407c-26.275,-67.337 -60.85,-130.775 -90.279,-196.607c-13.619,-30.466 -29.774,-60.058 -27.901,-95.544c1.455,-27.562 -20.489,-20.068 -34.736,-18.559c-87.735,9.296 -160.31,-26.869 -228.522,-75.421c-28.777,-20.483 -41.259,-48.337 -32.193,-84.77c4.898,-19.681 14.355,-29.267 35.098,-31.396c53.211,-5.463 106.094,-16.351 159.368,-18.433c73.053,-2.855 110.817,-45.004 130.582,-107.765c19.457,-61.784 26.649,-126.508 37.589,-190.238c13.414,-78.148 25.817,-156.471 41.396,-234.409c16.629,161.451 20.686,322.353 -11.702,482.303c-7.339,36.243 -7.66,36.267 30.998,37.182c26.111,0.618 52.535,-1.43 78.28,1.887c55.183,7.111 81.941,39.041 77.122,93.047c-8.289,-7.816 -14.634,-14.027 -21.22,-19.97c-29.107,-26.271 -51.311,-22.748 -54.303,14.308c-5.844,72.382 -41.22,111.144 -111.521,121.818c-19.937,3.026 -20.297,19.042 -18.561,34.792c4.117,37.344 12.56,73.531 29.438,107.386c18.31,36.727 35.995,73.786 55.109,110.09c50.114,95.186 53.201,195.937 32.518,298.087c-17.872,88.272 -78.978,118.062 -161.697,82.767c-13.626,-5.814 -26.627,-13.448 -39.137,-21.459c-37.998,-24.333 -69.818,-23.664 -106.378,3.649c-71.561,53.462 -131.99,117.257 -179.126,193.395c-20.329,32.838 -42.012,64.777 -66.982,94.308c-71.25,84.26 -164.138,89.898 -263.047,71.042c-75.172,-14.33 -128.058,-57.94 -159.769,-127.232c-40.373,-88.22 -81.076,-176.3 -120.198,-265.074c-15.895,-36.069 -40.853,-61.615 -75.062,-79.674c-25.312,-13.363 -49.52,-28.962 -75.354,-41.162c-82.384,-38.905 -104.76,-107.499 -97.062,-191.58c7.944,-86.756 40.462,-161.014 109.787,-216.887c17.425,-14.045 34.077,-29.189 50.019,-44.908c39.15,-38.602 39.286,-66.114 1.561,-105.482c-4.306,-4.493 -8.498,-9.173 -13.268,-13.133c-33.437,-27.765 -51.087,-60.678 -49.459,-106.743c1.652,-46.771 -19.016,-66.455 -64.728,-76.5c-15.283,-3.358 -30.977,-12.415 -47.081,-27.17l-0.001,-0Zm1014.82,155.89c49.101,75.517 157.871,107.133 234.794,71.163c25.319,-11.839 40.949,-31.659 49.899,-57.311c4.489,-12.866 10.941,-30.567 -6.826,-34.404c-13.578,-2.933 -34.494,-4.784 -36.334,23.297c-1.838,28.047 -23.566,43.857 -49.601,48.452c-38.791,6.848 -74.761,0.372 -98.797,-35.529c-5.653,-8.443 -9.681,-16.387 -22.176,-15.915c-22.991,0.868 -46.038,0.247 -70.959,0.247l0,-0Zm-480.146,791.109c1.839,20.263 3.881,37.071 4.751,53.941c0.866,16.797 5.92,31.822 16.769,44.51c8.711,10.188 16.994,24.64 32.603,20.671c16.703,-4.246 27.506,-18.002 29.024,-35.328c1.618,-18.453 -0.284,-37.188 0.038,-55.788c0.306,-17.668 -6.533,-27.392 -25.176,-30.017c-21.023,-2.96 -40.198,-12.251 -59.39,-21.391c-18.08,-8.611 -40.675,-33.189 -55.069,-16.246c-12.758,15.016 7.082,40.927 18.865,59.759c2.477,3.959 6.875,6.715 9.873,9.539c13.861,-4.385 10.9,-20.263 27.712,-29.651l-0,0.001Zm-86.097,-846.811c-38.961,-2.113 -77.474,-16.552 -111.748,21.275c-21.504,23.733 -57.066,24.674 -85.999,4.387c-26.841,-18.82 -45.118,-43.789 -33.374,-79.154c3.841,-11.564 -0.908,-16.124 -9.063,-20.461c-7.362,-3.915 -14.744,-12.175 -23.545,-6.342c-12.555,8.322 -15.08,22.027 -14.492,36.235c2.523,60.873 45.833,102.957 109.436,103.265c62.43,0.303 119.142,-19.05 168.785,-59.204l-0,-0.001Zm289.882,883.094c0.823,-26.829 -12.625,-40.98 -40.345,-42.452c-8.667,-0.448 -17.374,-0.606 -26.047,-0.351c-17.983,0.528 -28.118,8.132 -24.535,27.933c4.629,25.585 9.771,51.114 13.236,76.863c2.655,19.734 12.807,20.642 28.758,15.815c33.891,-10.256 47.501,-31.187 48.933,-77.808l-0,0Zm-405.185,-891.909c-10.836,-6.313 -19.495,-12.185 -26.94,-5.635c-25.07,22.055 -41.002,20.212 -48.235,-14.949c-1.485,-7.22 -9.444,-13.417 -16.802,-11.234c-8.998,2.67 -5.831,12.148 -4.326,18.738c4.159,18.212 16.036,30.012 33.43,36.071c26.075,9.085 44.915,-2.878 62.873,-22.991Zm792.585,66.152c29.665,36.776 65.273,43.777 95.203,20.834c8.312,-6.373 22.414,-14.725 12.605,-25.847c-8.415,-9.54 -19.869,-1.772 -26.562,8.957c-11.836,18.972 -27.166,22.82 -41.332,4.297c-11.076,-14.483 -23.399,-9.831 -39.914,-8.241Z" style="fill:#fff;fill-rule:nonzero;"/><path d="M796.107,1237.33c-16.157,0 -32.344,0.633 -48.462,-0.157c-21.018,-1.029 -39.502,3.347 -53.352,20.439c-20.168,24.891 -42.073,22.023 -64.918,4.066c-8.791,-6.911 -17.859,-13.505 -26.284,-20.837c-23.928,-20.825 -50.867,-29.074 -82.797,-24.656c-25.768,3.565 -51.858,6.212 -78.106,3.654c-22.528,-2.196 -40.865,-10.986 -51.423,-31.808c-15.308,-30.191 -20.932,-63.569 -29.442,-95.862c-4.914,-18.651 9.088,-30.244 23.739,-38.158c26.842,-14.498 55.912,-20.691 86.434,-18.084c139.996,11.96 280.134,21.749 420.434,29.459c40.829,2.244 68.963,31.77 75.283,74.652c6.257,42.464 -10.814,69.727 -53.294,86.351c-38.196,14.947 -78.062,12.924 -117.812,10.941l-0,0Z" style="fill:#fff;fill-rule:nonzero;"/></g></g></g></svg>