<?xml version="1.0" encoding="UTF-8" standalone="no"?><!DOCTYPE svg PUBLIC "-//W3C//DTD SVG 1.1//EN" "http://www.w3.org/Graphics/SVG/1.1/DTD/svg11.dtd"><svg width="100%" height="100%" viewBox="0 0 3226 3146" version="1.1" xmlns="http://www.w3.org/2000/svg" xmlns:xlink="http://www.w3.org/1999/xlink" xml:space="preserve" xmlns:serif="http://www.serif.com/" style="fill-rule:evenodd;clip-rule:evenodd;stroke-linejoin:round;stroke-miterlimit:2;"><rect id="Artboard1" x="0" y="0" width="3225.38" height="3145.85" style="fill:none;"/><clipPath id="_clip1"><rect x="0" y="0" width="3225.38" height="3145.85"/></clipPath><g clip-path="url(#_clip1)"><path d="M2414.02,303.967c299.667,42.679 438.75,121.908 608.833,354.358c208.334,284.721 259.042,628.471 152.084,1031.25c-108.334,402.775 -343.042,746.517 -704.167,1031.27c-361.125,284.708 -743.042,427.083 -1145.83,427.083c-402.792,0 -708.334,-142.375 -916.667,-427.083c-143.583,-196.208 -220.25,-328.75 -213.458,-581l934.375,57.304c5.541,8.708 11.416,17.296 17.625,25.763c89.583,122.22 228.833,91.666 401.041,91.666c172.209,0 335.75,-61.112 490.625,-183.333c154.875,-122.225 255.917,-269.446 303.125,-441.667c45.834,-172.225 23.959,-319.446 -65.625,-441.666c-49.708,-67.784 -16.25,-58.434 -91.333,-88.625l229.375,-855.317Z" style="fill:#fff;"/><g><path d="M1662.93,1917.47l-1497.08,-91.826l-161.869,-752.493l1077.7,71.822l325.201,-1142.89l769.707,-0l-513.664,1915.39Z" style="fill:#fff;"/></g></g></svg>