<svg xmlns="http://www.w3.org/2000/svg" viewBox="0 0 983.5 1149.85"><defs><style>.cls-1{fill:#fff;}</style></defs><title>Asset 1</title><g id="Layer_2" data-name="Layer 2"><g id="Layer_1-2" data-name="Layer 1"><path class="cls-1" d="M799.52,77.49a40.54,40.54,0,0,0,12.62,8.56,39.42,39.42,0,0,0,30.93,0,40.44,40.44,0,0,0,21.19-21.19,38.08,38.08,0,0,0,3.16-15.46,38.16,38.16,0,0,0-3.16-15.47,40.54,40.54,0,0,0-21.19-21.19,39.54,39.54,0,0,0-30.93,0A40.63,40.63,0,0,0,791,33.93,38.32,38.32,0,0,0,787.8,49.4,38.24,38.24,0,0,0,791,64.86,40.67,40.67,0,0,0,799.52,77.49Zm-2.09-40.83a32.65,32.65,0,0,1,17.44-17.44,32.84,32.84,0,0,1,25.47,0,32.63,32.63,0,0,1,17.45,17.44,32.84,32.84,0,0,1,0,25.47,32.6,32.6,0,0,1-17.45,17.45,32.84,32.84,0,0,1-25.47,0,32.63,32.63,0,0,1-17.44-17.45,32.84,32.84,0,0,1,0-25.47Z"/><path class="cls-1" d="M820.65,53.25h6.1L838.1,71.87h8.77L835.1,52.61a12.84,12.84,0,0,0,7.74-3.53q3.06-3,3.07-9,0-6.63-3.91-10.17t-12.14-3.53H812.3V71.87h8.35Zm0-19.8h6.1c1.29,0,2.57,0,3.85.11a10.45,10.45,0,0,1,3.48.75,5.91,5.91,0,0,1,2.52,1.92,5.81,5.81,0,0,1,1,3.54,5.78,5.78,0,0,1-1,3.53,5.93,5.93,0,0,1-2.52,1.93,11.84,11.84,0,0,1-3.48.8c-1.28.1-2.56.16-3.85.16h-6.1Z"/><path class="cls-1" d="M488.94,775.64c213.85,0,387.82-174,387.82-387.82S702.79,0,488.94,0,101.12,174,101.12,387.82,275.09,775.64,488.94,775.64Zm0-596.45c115,0,208.63,93.59,208.63,208.63S604,596.44,488.94,596.44,280.31,502.85,280.31,387.82,373.9,179.19,488.94,179.19Z"/><path class="cls-1" d="M491.74,801C264.76,801,71.32,941.68,0,1149.85H196.56C256,1027.4,366,980.2,491.74,980.2s235.79,47.2,295.2,169.65H983.5C912.18,941.68,718.74,801,491.74,801Z"/></g></g></svg>