<?xml version="1.0" encoding="UTF-8" standalone="no"?><!DOCTYPE svg PUBLIC "-//W3C//DTD SVG 1.1//EN" "http://www.w3.org/Graphics/SVG/1.1/DTD/svg11.dtd"><svg width="100%" height="100%" viewBox="0 0 2358 2358" version="1.1" xmlns="http://www.w3.org/2000/svg" xmlns:xlink="http://www.w3.org/1999/xlink" xml:space="preserve" xmlns:serif="http://www.serif.com/" style="fill-rule:evenodd;clip-rule:evenodd;stroke-linejoin:round;stroke-miterlimit:2;"><rect id="Artboard1" x="0" y="0" width="2357.03" height="2357.03" style="fill:none;"/><clipPath id="_clip1"><rect x="0" y="0" width="2357.03" height="2357.03"/></clipPath><g clip-path="url(#_clip1)"><g><g id="Green"><path d="M1445.26,887.003l-265.165,265.165l-589.256,-589.256l265.165,-265.165l589.256,589.256Z" style="fill:#28a93f;"/><path d="M1798.8,3.119l265.165,265.166l-883.883,883.883l-265.165,-265.165l883.883,-883.884Z" style="fill:#28a93f;"/><path d="M1180.09,621.838l265.165,265.165l-265.165,265.165l-265.165,-265.165l265.165,-265.165Z" style="fill:#1e8030;"/></g><g id="Red"><path d="M885.453,916.466l265.165,265.165l-589.256,589.255l-265.165,-265.165l589.256,-589.255Z" style="fill:#fb4a1a;"/><path d="M1.569,562.922l265.165,-265.165l883.884,883.883l-265.165,265.165l-883.884,-883.883Z" style="fill:#fb4a1a;"/><path d="M620.288,1181.63l265.165,-265.165l265.165,265.165l-265.165,265.165l-265.165,-265.165Z" style="fill:#aa2703;"/></g><g id="Blue"><path d="M914.916,1476.27l265.165,-265.165l589.255,589.256l-265.165,265.165l-589.255,-589.256Z" style="fill:#0073b4;"/><path d="M561.372,2360.15l-265.165,-265.165l883.883,-883.883l265.165,265.165l-883.883,883.883Z" style="fill:#0073b4;"/><path d="M1180.08,1741.43l-265.165,-265.165l265.165,-265.165l265.165,265.165l-265.165,265.165Z" style="fill:#005180;"/></g><g id="Yellow"><path d="M1474.72,1446.81l-265.165,-265.165l589.256,-589.255l265.165,265.165l-589.256,589.255Z" style="fill:#ffaf00;"/><path d="M2358.6,1800.35l-265.165,265.165l-883.883,-883.883l265.165,-265.165l883.883,883.883Z" style="fill:#ffaf00;"/><path d="M1739.88,1181.64l-265.165,265.165l-265.165,-265.165l265.165,-265.165l265.165,265.165Z" style="fill:#cc8c00;"/></g></g></g></svg>